<?xml version="1.0" encoding="UTF-8"?>
<svg width="263px" height="75px" viewBox="0 0 263 75" version="1.1" xmlns="http://www.w3.org/2000/svg" xmlns:xlink="http://www.w3.org/1999/xlink">
    <title>AA8B1D54-1B4D-43F0-84DD-71EEE2AE69A5</title>
    <g id="Design-System" stroke="none" stroke-width="1" fill="none" fill-rule="evenodd">
        <g id="FMG---Design-System" transform="translate(-113.000000, -1563.000000)" fill="#B72800">
            <g id="Icons" transform="translate(111.000000, 1264.000000)">
                <path d="M238.677345,316.533065 C243.959882,318.533264 248.892866,321.009641 252.315214,324.023908 C254.021412,325.52708 255.317162,327.147003 256.099413,328.866999 C256.886934,330.583659 257.153344,332.425827 256.916795,334.367233 C256.684345,336.273197 255.924929,338.14622 254.648501,339.960034 C253.374415,341.773431 251.588587,343.521363 249.419831,345.152545 C245.073536,348.424498 239.327854,351.209015 233.061062,353.572394 C226.771435,355.938274 219.91327,357.906783 212.768788,359.593421 C198.450547,362.952521 182.999915,365.228753 166.997726,366.762364 C150.980899,368.281798 134.354549,369.047352 117.344099,368.997733 C108.839459,368.968545 100.236453,368.729205 91.5743096,368.227592 C82.9139226,367.721809 74.1885432,366.957922 65.48717,365.807089 C56.7975071,364.644163 48.0961339,363.120559 39.7343607,360.862674 C35.5631352,359.729353 31.4768096,358.407562 27.6621642,356.781802 C23.8609856,355.157292 20.2981125,353.217553 17.5666741,350.819149 C16.2071029,349.621615 15.0887648,348.321924 14.3106122,346.943425 C13.528361,345.567012 13.0898086,344.113459 13.0154478,342.644895 C12.9293768,341.175081 13.2033989,339.717358 13.8269749,338.339277 C14.4464522,336.958693 15.4107993,335.659836 16.6111098,334.474811 C19.0175861,332.095171 22.2795032,330.179199 25.7170755,328.575538 C29.1722134,326.970208 32.8521899,325.668849 36.5567581,324.537613 C43.9899008,322.290152 51.5325352,320.710258 58.8667254,319.406397 C66.2120404,318.113794 73.3822858,317.120991 80.3194953,316.292057 C94.2009404,314.647116 107.144972,313.63138 119.115874,312.859154 C131.09029,312.096102 142.104456,311.600326 152.215755,311.229641 C172.439524,310.503281 189.050651,310.256436 202.671541,310.100072 C206.598606,310.058376 210.270385,310.026269 213.71674,310 C216.44935,310.500362 219.180203,311.049093 221.901102,311.657451 C227.656152,312.956308 233.367288,314.527029 238.677345,316.533065 M264.966499,309.227761 C265.093695,309.152356 264.817616,309.096221 264.818788,309.097059 C259.507046,308.894722 254.3055,308.745169 249.058235,308.609021 C243.822693,308.475806 238.589495,308.365212 233.356298,308.276402 C232.815276,308.267186 232.27484,308.260483 231.733819,308.251686 C228.093792,307.256759 224.385772,306.390021 220.646099,305.618796 C213.614575,304.174792 206.458201,303.066758 199.254348,302.178237 C184.840195,300.413342 170.243161,299.510996 155.643196,299.157431 C141.039714,298.813919 126.416889,299.036364 111.859127,299.787481 C97.3107442,300.544463 82.8016334,301.826347 68.5146757,303.815362 C61.3741276,304.814477 54.2904366,305.994983 47.325149,307.435218 C40.3663092,308.88006 33.5100466,310.573739 26.9591711,312.719847 C21.3953817,314.551769 15.9757865,316.719242 11.34164,319.51886 C9.03628983,320.919716 6.94195571,322.49149 5.2966168,324.267696 C3.65069175,326.038455 2.48658663,328.031659 2.06396841,330.111579 C2.06455456,330.114511 1.96139117,330.798601 2.01590365,331.557259 C2.05810685,332.316335 2.28025984,333.13783 2.49948205,333.421018 C2.60733469,333.563449 2.70991193,333.578111 2.79373219,333.385829 C2.87989707,333.193546 2.93734032,332.791805 3.05984685,332.114418 C3.19055956,331.439543 3.37226781,330.474779 3.93497724,329.223057 C4.50061743,327.975105 5.47363581,326.441034 7.30302758,324.754057 C8.21449962,323.914549 9.57496687,322.791015 11.5878254,321.529239 C13.5959946,320.267882 16.2583136,318.874148 19.6263639,317.474548 C26.3519138,314.662363 35.8863216,311.861488 47.8978231,309.460259 C59.9087385,307.05568 74.3774045,305.015557 90.9943309,303.583701 C107.608913,302.161061 126.388167,301.314012 146.985091,301.536038 C158.919806,301.675956 171.474087,302.175723 184.489087,303.302608 C190.994243,303.868564 197.613112,304.595803 204.293528,305.554283 C209.169757,306.256806 214.082914,307.083328 218.979072,308.085376 C218.919284,308.084957 218.85891,308.084119 218.799122,308.083281 C208.482197,306.037294 197.820025,304.69341 187.104514,303.7387 C174.424209,302.625639 161.619639,302.086494 148.812724,301.969616 C132.511735,301.827185 116.180267,302.369681 100.001785,303.58789 C83.8361982,304.825788 67.7690857,306.704628 52.2881289,309.673907 C45.6921194,310.945318 39.1939979,312.431633 33.0065389,314.229622 C26.8390092,316.030124 20.9229402,318.14272 15.9634773,320.770163 C15.9640634,320.771001 15.1838903,321.22343 14.4101648,321.764251 C13.6299916,322.303397 12.8773678,322.934285 12.7284843,323.21077 C12.5913238,323.493957 12.9693942,323.39635 14.6880026,322.577368 C16.4306433,321.778076 19.5741961,320.217612 25.8401999,318.159895 C28.9638234,317.142347 34.5809529,315.375777 43.0034234,313.501126 C51.4100677,311.621868 62.5950898,309.642488 76.4060892,308.008714 C90.2100547,306.378711 106.62593,305.068759 125.347155,304.547627 C134.705716,304.290832 144.63871,304.232602 155.081072,304.480601 C165.519918,304.732788 176.475754,305.281569 187.799695,306.34017 C192.556934,306.791762 197.390373,307.329232 202.254879,307.991539 C202.155233,307.991539 202.055586,307.990701 201.95594,307.990701 C181.020804,307.976039 160.073946,308.289388 139.137053,309.132667 C150.9434,308.204348 148.778141,307.885972 148.778141,307.875499 C134.058014,308.303212 119.33144,308.968452 104.617174,310.037107 C89.906426,311.120425 75.1939193,312.56443 60.5892652,314.909942 C53.2916274,316.095894 46.0174358,317.508899 38.8557861,319.401144 C35.2773059,320.352922 31.7275473,321.425348 28.2510581,322.703462 C24.7798444,323.984927 21.3695908,325.469148 18.1850072,327.321177 C15.0221113,329.174463 12.0379929,331.435354 9.93838338,334.258013 C8.89326786,335.661382 8.09492386,337.195454 7.63244706,338.780215 C7.16586716,340.366651 7.03515445,341.981154 7.19986419,343.565077 C7.36398777,345.15654 7.84756618,346.739625 8.61484392,348.225521 C9.37977704,349.712256 10.4161002,351.098869 11.6200639,352.359807 C14.0408868,354.883778 17.0683807,356.907982 20.2512058,358.609201 C23.4457541,360.310001 26.827286,361.703736 30.2750536,362.913566 C33.726338,364.120464 37.2491335,365.147228 40.8082705,366.04748 C47.9288893,367.844212 55.1819793,369.168825 62.4725833,370.224495 C77.0637558,372.316563 91.8114319,373.359665 106.549729,373.794081 C121.29213,374.212159 136.043909,373.989715 150.722419,373.162355 C165.397412,372.326198 180.014961,370.891828 194.401566,368.631356 C201.592523,367.497349 208.723693,366.148857 215.729425,364.50503 C222.729882,362.856594 229.617211,360.916592 236.195636,358.500283 C242.7512,356.07769 249.065269,353.183815 254.354738,349.426555 C256.984232,347.548972 259.340577,345.446849 261.144765,343.104269 C262.95833,340.770067 264.191602,338.192056 264.654078,335.541572 C265.116555,332.897372 264.882679,330.179443 263.810014,327.625729 C262.754934,325.068245 260.900338,322.71184 258.581506,320.658731 C256.262088,318.599338 253.498364,316.826484 250.53945,315.274399 C247.574675,313.721476 244.404745,312.384295 241.136928,311.201276 C239.74598,310.699414 238.334518,310.22939 236.912504,309.778217 C252.704709,309.729204 259.70458,309.646677 262.749073,309.477435 C264.301213,309.39449 264.838131,309.303166 264.966499,309.227761" id="Icons/icon-spirale"></path>
            </g>
        </g>
    </g>
</svg>