<?xml version="1.0" encoding="UTF-8"?>
<svg width="263px" height="75px" viewBox="0 0 263 75" version="1.1" xmlns="http://www.w3.org/2000/svg" xmlns:xlink="http://www.w3.org/1999/xlink">
    <title>Fill 1</title>
    <g id="Version-01---Blue" stroke="none" stroke-width="1" fill="none" fill-rule="evenodd" opacity="0.15">
        <g id="FMG-Introduction" transform="translate(-66.000000, -2099.000000)" fill="#B72800">
            <g id="/-SERVICES" transform="translate(0.000000, 806.000000)">
                <g id="--Main-line" transform="translate(0.000000, 861.000000)">
                    <g id="/-APPROACH" transform="translate(66.000000, 0.000000)">
                        <g id="--Targets" transform="translate(0.000000, 409.000000)">
                            <g id="Group-3" transform="translate(0.000000, 23.000000)">
                                <path d="M236.677345,17.5330653 C241.959882,19.5332641 246.892866,22.0096411 250.315214,25.0239078 C252.021412,26.5270799 253.317162,28.1470032 254.099413,29.866999 C254.886934,31.5836591 255.153344,33.4258267 254.916795,35.3672329 C254.684345,37.2731968 253.924929,39.1462201 252.648501,40.9600339 C251.374415,42.7734307 249.588587,44.5213634 247.419831,46.1525449 C243.073536,49.4244982 237.327854,52.209015 231.061062,54.5723935 C224.771435,56.9382739 217.91327,58.906783 210.768788,60.5934213 C196.450547,63.9525211 180.999915,66.2287531 164.997726,67.7623639 C148.980899,69.2817978 132.354549,70.0473523 115.344099,69.997733 C106.839459,69.9685452 98.2364532,69.7292052 89.5743096,69.2275919 C80.9139226,68.7218089 72.1885432,67.9579222 63.48717,66.8070887 C54.7975071,65.644163 46.0961339,64.1205594 37.7343607,61.862674 C33.5631352,60.7293531 29.4768096,59.4075624 25.6621642,57.7818015 C21.8609856,56.1572915 18.2981125,54.2175532 15.5666741,51.8191493 C14.2071029,50.6216153 13.0887648,49.3219239 12.3106122,47.9434254 C11.528361,46.5670118 11.0898086,45.1134589 11.0154478,43.6448952 C10.9293768,42.1750806 11.2033989,40.7173581 11.8269749,39.3392766 C12.4464522,37.9586933 13.4107993,36.6598358 14.6111098,35.4748108 C17.0175861,33.0951706 20.2795032,31.1791995 23.7170755,29.5755379 C27.1722134,27.9702085 30.8521899,26.6688492 34.5567581,25.5376132 C41.9899008,23.290152 49.5325352,21.7102576 56.8667254,20.4063965 C64.2120404,19.1137936 71.3822858,18.1209912 78.3194953,17.2920574 C92.2009404,15.647116 105.144972,14.6313803 117.115874,13.8591543 C129.09029,13.0961016 140.104456,12.6003258 150.215755,12.2296406 C170.439524,11.5032812 187.050651,11.2564357 200.671541,11.1000725 C204.598606,11.0583756 208.270385,11.026269 211.71674,11 C214.44935,11.5003624 217.180203,12.0490932 219.901102,12.6574505 C225.656152,13.956308 231.367288,15.527029 236.677345,17.5330653 M262.966499,10.2277608 C263.093695,10.1523559 262.817616,10.0962211 262.818788,10.0970589 C257.507046,9.89472232 252.3055,9.74516918 247.058235,9.60902137 C241.822693,9.47580597 236.589495,9.36521206 231.356298,9.27640179 C230.815276,9.26718563 230.27484,9.26048297 229.733819,9.25168573 C226.093792,8.2567594 222.385772,7.39002147 218.646099,6.61879648 C211.614575,5.17479183 204.458201,4.06675809 197.254348,3.17823651 C182.840195,1.41334194 168.243161,0.510996125 153.643196,0.157430727 C139.039714,-0.186080678 124.416889,0.0363639023 109.859127,0.787480914 C95.3107442,1.54446276 80.8016334,2.82634678 66.5146757,4.8153616 C59.3741276,5.81447709 52.2904366,6.99498336 45.325149,8.43521776 C38.3663092,9.88006025 31.5100466,11.573739 24.9591711,13.7198475 C19.3953817,15.5517687 13.9757865,17.7192419 9.34164,20.5188598 C7.03628983,21.9197161 4.94195571,23.4914902 3.2966168,25.2676955 C1.65069175,27.0384549 0.48658663,29.0316589 0.0639684087,31.1115786 C0.0645545644,31.114511 -0.0386088296,31.7986014 0.0159036456,32.5572589 C0.0581068522,33.3163353 0.280259843,34.1378303 0.499482055,34.4210177 C0.607334694,34.5634493 0.709911932,34.5781114 0.79373219,34.3858288 C0.87989707,34.1935462 0.937340323,33.7918054 1.05984685,33.1144177 C1.19055956,32.4395434 1.37226781,31.4747791 1.93497724,30.223057 C2.50061743,28.9751052 3.47363581,27.4410336 5.30302758,25.7540574 C6.21449962,24.9145491 7.57496687,23.7910154 9.58782537,22.5292394 C11.5959946,21.2678823 14.2583136,19.8741476 17.6263639,18.474548 C24.3519138,15.6623626 33.8863216,12.8614879 45.8978231,10.4602594 C57.9087385,8.05567955 72.3774045,6.01555694 88.9943309,4.58370086 C105.608913,3.16106094 124.388167,2.31401209 144.985091,2.53603775 C156.919806,2.67595581 169.474087,3.17572301 182.489087,4.30260799 C188.994243,4.86856398 195.613112,5.59580276 202.293528,6.55428336 C207.169757,7.25680608 212.082914,8.08332803 216.979072,9.08537594 C216.919284,9.08495702 216.85891,9.08411919 216.799122,9.08328135 C206.482197,7.03729391 195.820025,5.69341027 185.104514,4.73869991 C172.424209,3.62563917 159.619639,3.08649383 146.812724,2.96961617 C130.511735,2.82718461 114.180267,3.36968128 98.0017848,4.58789002 C81.8361982,5.82578783 65.7690857,7.70462765 50.2881289,10.6739067 C43.6921194,11.9453178 37.1939979,13.431633 31.0065389,15.229622 C24.8390092,17.0301245 18.9229402,19.1427196 13.9634773,21.770163 C13.9640634,21.7710008 13.1838903,22.2234304 12.4101648,22.7642514 C11.6299916,23.3033968 10.8773678,23.9342848 10.7284843,24.2107696 C10.5913238,24.493957 10.9693942,24.3963495 12.6880026,23.5773681 C14.4306433,22.7780757 17.5741961,21.2176123 23.8401999,19.1598952 C26.9638234,18.1423474 32.5809529,16.3757771 41.0034234,14.5011265 C49.4100677,12.6218677 60.5950898,10.642488 74.4060892,9.00871424 C88.2100547,7.37871073 104.62593,6.06875931 123.347155,5.54762738 C132.705716,5.29083166 142.63871,5.23260228 153.081072,5.48060076 C163.519918,5.7327884 174.475754,6.28156882 185.799695,7.34017043 C190.556934,7.79176225 195.390373,8.32923193 200.254879,8.99153867 C200.155233,8.99153867 200.055586,8.99070084 199.95594,8.99070084 C179.020804,8.97603877 158.073946,9.2893882 137.137053,10.1326668 C148.9434,9.20434818 146.778141,8.88597175 146.778141,8.87549884 C132.058014,9.30321244 117.33144,9.9684516 102.617174,11.0371072 C87.906426,12.1204249 73.1939193,13.5644295 58.5892652,15.9099422 C51.2916274,17.0958943 44.0174358,18.5088992 36.8557861,20.4011443 C33.2773059,21.3529223 29.7275473,22.4253481 26.2510581,23.7034619 C22.7798444,24.984927 19.3695908,26.4691476 16.1850072,28.3211768 C13.0221113,30.1744627 10.0379929,32.4353543 7.93838338,35.2580126 C6.89326786,36.6613824 6.09492386,38.195454 5.63244706,39.7802146 C5.16586716,41.3666508 5.03515445,42.9811544 5.19986419,44.5650771 C5.36398777,46.1565403 5.84756618,47.7396252 6.61484392,49.2255215 C7.37977704,50.7122556 8.41610023,52.0988687 9.62006393,53.3598069 C12.0408868,55.8837779 15.0683807,57.9079817 18.2512058,59.609201 C21.4457541,61.3100014 24.827286,62.7037361 28.2750536,63.9135665 C31.726338,65.1204645 35.2491335,66.1472284 38.8082705,67.0474797 C45.9288893,68.8442119 53.1819793,70.1688254 60.4725833,71.2244946 C75.0637558,73.3165628 89.8114319,74.3596645 104.549729,74.7940808 C119.29213,75.2121593 134.043909,74.9897147 148.722419,74.1623549 C163.397412,73.3261979 178.014961,71.8918283 192.401566,69.6313557 C199.592523,68.4973492 206.723693,67.1488574 213.729425,65.5050297 C220.729882,63.8565939 227.617211,61.9165922 234.195636,59.5002827 C240.7512,57.0776895 247.065269,54.1838154 252.354738,50.4265547 C254.984232,48.5489716 257.340577,46.4468493 259.144765,44.1042691 C260.95833,41.7700672 262.191602,39.192056 262.654078,36.5415723 C263.116555,33.8973723 262.882679,31.179443 261.810014,28.625729 C260.754934,26.0682447 258.900338,23.7118402 256.581506,21.6587312 C254.262088,19.5993384 251.498364,17.8264845 248.53945,16.2743994 C245.574675,14.7214765 242.404745,13.3842955 239.136928,12.2012757 C237.74598,11.6994139 236.334518,11.2293898 234.912504,10.7782169 C250.704709,10.7292037 257.70458,10.6466772 260.749073,10.477435 C262.301213,10.3944895 262.838131,10.3031658 262.966499,10.2277608" id="Fill-1"></path>
                            </g>
                        </g>
                    </g>
                </g>
            </g>
        </g>
    </g>
</svg>