<?xml version="1.0" encoding="UTF-8"?>
<svg width="378px" height="131px" viewBox="0 0 378 131" version="1.1" xmlns="http://www.w3.org/2000/svg" xmlns:xlink="http://www.w3.org/1999/xlink">
    <title>Logos/logo-fmg-v03</title>
    <g id="Symbols" stroke="none" stroke-width="1" fill="none" fill-rule="evenodd">
        <g id="Logo-v1-Copy-4" transform="translate(-119.000000, -27.000000)" fill="#FFFFFF">
            <g id="Logos/logo-fmg-v03" transform="translate(119.240625, 27.000000)">
                <path d="M104.775375,128.176 C106.007375,128.176 106.823375,127.568 107.319375,126.784 L107.319375,128 L108.455375,128 L108.455375,122.64 C108.455375,121.664 108.167375,120.896 107.655375,120.384 C107.111375,119.84 106.327375,119.552 105.319375,119.552 C104.295375,119.552 103.479375,119.84 102.695375,120.224 L103.063375,121.168 C103.639375,120.864 104.359375,120.608 105.191375,120.608 C106.535375,120.608 107.319375,121.328 107.319375,122.672 L107.319375,123.168 C106.695375,122.976 106.055375,122.832 105.175375,122.832 C103.335375,122.832 102.103375,123.808 102.103375,125.52 L102.103375,125.584 C102.103375,127.232 103.383375,128.176 104.775375,128.176 Z M105.031375,127.216 C104.039375,127.216 103.255375,126.56 103.255375,125.52 L103.255375,125.472 C103.255375,124.416 103.991375,123.728 105.319375,123.728 C106.135375,123.728 106.807375,123.872 107.335375,124.064 L107.335375,125.104 C107.335375,126.32 106.311375,127.232 105.031375,127.216 Z M114.927375,128.176 C116.159375,128.176 116.991375,127.632 117.615375,126.928 L116.943375,126.16 C116.415375,126.704 115.807375,127.12 114.991375,127.12 C113.583375,127.12 112.431375,125.856 112.431375,123.888 L112.431375,123.808 C112.431375,121.872 113.551375,120.56 114.943375,120.56 C115.807375,120.56 116.399375,121.008 116.895375,121.504 L117.583375,120.64 C116.943375,120 116.143375,119.504 114.959375,119.504 C112.879375,119.504 111.247375,121.28 111.247375,123.808 L111.247375,123.92 C111.247375,126.448 112.831375,128.176 114.927375,128.176 Z M123.351375,128.176 C124.583375,128.176 125.415375,127.632 126.039375,126.928 L125.367375,126.16 C124.839375,126.704 124.231375,127.12 123.415375,127.12 C122.007375,127.12 120.855375,125.856 120.855375,123.888 L120.855375,123.808 C120.855375,121.872 121.975375,120.56 123.367375,120.56 C124.231375,120.56 124.823375,121.008 125.319375,121.504 L126.007375,120.64 C125.367375,120 124.567375,119.504 123.383375,119.504 C121.303375,119.504 119.671375,121.28 119.671375,123.808 L119.671375,123.92 C119.671375,126.448 121.255375,128.176 123.351375,128.176 Z M131.791375,128.176 C133.935375,128.176 135.503375,126.304 135.503375,123.872 L135.503375,123.776 C135.503375,121.344 133.951375,119.504 131.807375,119.504 C129.663375,119.504 128.095375,121.36 128.095375,123.792 L128.095375,123.904 C128.095375,126.336 129.647375,128.176 131.791375,128.176 Z M131.807375,127.136 C130.383375,127.136 129.279375,125.744 129.279375,123.872 L129.279375,123.792 C129.279375,121.936 130.319375,120.544 131.791375,120.544 C133.215375,120.544 134.335375,121.936 134.335375,123.808 L134.335375,123.888 C134.335375,125.728 133.279375,127.136 131.807375,127.136 Z M141.031375,128.16 C142.279375,128.16 143.031375,127.472 143.495375,126.64 L143.495375,128 L144.647375,128 L144.647375,119.664 L143.495375,119.664 L143.495375,124.752 C143.495375,126.176 142.599375,127.12 141.383375,127.12 C140.167375,127.12 139.463375,126.288 139.463375,124.8 L139.463375,119.664 L138.311375,119.664 L138.311375,125.136 C138.311375,126.992 139.335375,128.16 141.031375,128.16 Z M149.167375,128 L149.167375,122.928 C149.167375,121.504 150.063375,120.544 151.279375,120.544 C152.495375,120.544 153.199375,121.376 153.199375,122.864 L153.199375,128 L154.351375,128 L154.351375,122.544 C154.351375,120.672 153.327375,119.504 151.631375,119.504 C150.383375,119.504 149.631375,120.192 149.167375,121.024 L149.167375,119.664 L148.015375,119.664 L148.015375,128 L149.167375,128 Z M160.023375,128.128 C160.503375,128.128 160.903375,128.016 161.271375,127.84 L161.271375,126.848 C160.935375,126.992 160.615375,127.072 160.295375,127.072 C159.575375,127.072 159.095375,126.752 159.095375,125.872 L159.095375,120.688 L161.271375,120.688 L161.271375,119.664 L159.095375,119.664 L159.095375,117.232 L157.943375,117.232 L157.943375,119.664 L156.935375,119.664 L156.935375,120.688 L157.943375,120.688 L157.943375,126.064 C157.943375,127.552 158.839375,128.128 160.023375,128.128 Z M165.439375,117.952 L165.439375,116.592 L164.159375,116.592 L164.159375,117.952 L165.439375,117.952 Z M165.375375,128 L165.375375,119.664 L164.223375,119.664 L164.223375,128 L165.375375,128 Z M169.991375,128 L169.991375,122.928 C169.991375,121.504 170.887375,120.544 172.103375,120.544 C173.319375,120.544 174.023375,121.376 174.023375,122.864 L174.023375,128 L175.175375,128 L175.175375,122.544 C175.175375,120.672 174.151375,119.504 172.455375,119.504 C171.207375,119.504 170.455375,120.192 169.991375,121.024 L169.991375,119.664 L168.839375,119.664 L168.839375,128 L169.991375,128 Z M181.519375,130.432 C182.703375,130.432 183.647375,130.112 184.287375,129.472 C184.879375,128.88 185.199375,128.032 185.199375,126.896 L185.199375,119.664 L184.047375,119.664 L184.047375,121.152 C183.487375,120.272 182.639375,119.504 181.311375,119.504 C179.615375,119.504 178.015375,120.928 178.015375,123.44 L178.015375,123.504 C178.015375,126.016 179.599375,127.424 181.295375,127.424 C182.623375,127.424 183.471375,126.64 184.047375,125.712 L184.047375,126.928 C184.047375,128.592 183.071375,129.424 181.503375,129.424 C180.543375,129.424 179.599375,129.12 178.815375,128.608 L178.351375,129.536 C179.327375,130.144 180.399375,130.432 181.519375,130.432 Z M181.567375,126.384 C180.271375,126.384 179.199375,125.28 179.199375,123.472 L179.199375,123.44 C179.199375,121.616 180.255375,120.544 181.567375,120.544 C182.847375,120.544 184.079375,121.648 184.079375,123.44 L184.079375,123.488 C184.079375,125.264 182.847375,126.384 181.567375,126.384 Z M200.991375,128.192 L201.903375,127.536 L200.223375,125.584 C200.735375,124.768 201.167375,123.808 201.567375,122.72 L200.591375,122.32 C200.255375,123.248 199.919375,124.048 199.503375,124.752 L197.247375,122.032 C198.703375,121.344 199.615375,120.448 199.615375,119.088 L199.615375,119.04 C199.615375,117.728 198.607375,116.624 197.135375,116.624 C195.519375,116.624 194.463375,117.776 194.463375,119.136 L194.463375,119.184 C194.463375,120.048 194.799375,120.752 195.567375,121.744 C194.015375,122.528 193.135375,123.648 193.135375,125.072 L193.135375,125.12 C193.135375,126.88 194.479375,128.144 196.303375,128.144 C197.631375,128.144 198.655375,127.52 199.519375,126.496 L200.991375,128.192 Z M196.623375,121.312 C195.839375,120.352 195.583375,119.808 195.583375,119.168 L195.583375,119.136 C195.583375,118.288 196.207375,117.616 197.103375,117.616 C197.919375,117.616 198.511375,118.256 198.511375,119.104 L198.511375,119.12 C198.511375,120.048 197.887375,120.752 196.623375,121.312 Z M196.399375,127.12 C195.183375,127.12 194.351375,126.224 194.351375,125.056 L194.351375,125.008 C194.351375,124.08 194.895375,123.136 196.191375,122.512 L198.847375,125.712 C198.159375,126.576 197.359375,127.12 196.399375,127.12 Z M211.759375,128.176 C212.991375,128.176 213.807375,127.568 214.303375,126.784 L214.303375,128 L215.439375,128 L215.439375,122.64 C215.439375,121.664 215.151375,120.896 214.639375,120.384 C214.095375,119.84 213.311375,119.552 212.303375,119.552 C211.279375,119.552 210.463375,119.84 209.679375,120.224 L210.047375,121.168 C210.623375,120.864 211.343375,120.608 212.175375,120.608 C213.519375,120.608 214.303375,121.328 214.303375,122.672 L214.303375,123.168 C213.679375,122.976 213.039375,122.832 212.159375,122.832 C210.319375,122.832 209.087375,123.808 209.087375,125.52 L209.087375,125.584 C209.087375,127.232 210.367375,128.176 211.759375,128.176 Z M212.015375,127.216 C211.023375,127.216 210.239375,126.56 210.239375,125.52 L210.239375,125.472 C210.239375,124.416 210.975375,123.728 212.303375,123.728 C213.119375,123.728 213.791375,123.872 214.319375,124.064 L214.319375,125.104 C214.319375,126.32 213.295375,127.232 212.015375,127.216 Z M221.591375,128.16 C222.903375,128.16 223.735375,127.344 224.295375,126.4 L224.295375,128 L225.447375,128 L225.447375,116.448 L224.295375,116.448 L224.295375,121.216 C223.751375,120.304 222.919375,119.504 221.591375,119.504 C219.895375,119.504 218.263375,120.992 218.263375,123.76 L218.263375,123.92 C218.263375,126.704 219.895375,128.16 221.591375,128.16 Z M221.831375,127.12 C220.535375,127.12 219.447375,125.92 219.447375,123.888 L219.447375,123.76 C219.447375,121.712 220.503375,120.544 221.831375,120.544 C223.143375,120.544 224.343375,121.792 224.343375,123.76 L224.343375,123.904 C224.343375,125.872 223.143375,127.12 221.831375,127.12 Z M232.239375,128.064 L235.295375,119.664 L234.079375,119.664 L231.711375,126.512 L229.375375,119.664 L228.127375,119.664 L231.199375,128.064 L232.239375,128.064 Z M239.287375,117.952 L239.287375,116.592 L238.007375,116.592 L238.007375,117.952 L239.287375,117.952 Z M239.223375,128 L239.223375,119.664 L238.071375,119.664 L238.071375,128 L239.223375,128 Z M244.943375,128.144 C246.447375,128.144 247.647375,127.232 247.647375,125.744 L247.647375,125.712 C247.647375,124.448 246.687375,123.872 245.311375,123.264 C244.175375,122.784 243.455375,122.432 243.455375,121.728 L243.455375,121.696 C243.455375,121.04 244.015375,120.528 244.895375,120.528 C245.631375,120.528 246.351375,120.848 246.991375,121.312 L247.551375,120.432 C246.847375,119.904 245.871375,119.536 244.927375,119.536 C243.439375,119.536 242.335375,120.448 242.335375,121.808 L242.335375,121.84 C242.335375,123.136 243.391375,123.664 244.719375,124.24 C245.839375,124.704 246.527375,125.088 246.527375,125.824 L246.527375,125.84 C246.527375,126.624 245.887375,127.136 244.975375,127.136 C244.143375,127.136 243.327375,126.784 242.543375,126.128 L241.935375,126.976 C242.815375,127.744 243.919375,128.144 244.943375,128.144 Z M253.783375,128.176 C255.927375,128.176 257.495375,126.304 257.495375,123.872 L257.495375,123.776 C257.495375,121.344 255.943375,119.504 253.799375,119.504 C251.655375,119.504 250.087375,121.36 250.087375,123.792 L250.087375,123.904 C250.087375,126.336 251.639375,128.176 253.783375,128.176 Z M253.799375,127.136 C252.375375,127.136 251.271375,125.744 251.271375,123.872 L251.271375,123.792 C251.271375,121.936 252.311375,120.544 253.783375,120.544 C255.207375,120.544 256.327375,121.936 256.327375,123.808 L256.327375,123.888 C256.327375,125.728 255.271375,127.136 253.799375,127.136 Z M261.567375,128 L261.567375,124.032 C261.567375,121.888 262.815375,120.8 264.367375,120.8 L264.431375,120.8 L264.431375,119.552 C263.071375,119.488 262.063375,120.336 261.567375,121.504 L261.567375,119.664 L260.415375,119.664 L260.415375,128 L261.567375,128 Z M268.151375,130.464 C269.271375,130.464 269.991375,129.872 270.583375,128.144 L273.543375,119.664 L272.311375,119.664 L270.071375,126.528 L267.575375,119.664 L266.327375,119.664 L269.527375,128 C269.111375,129.072 268.711375,129.424 268.087375,129.424 C267.671375,129.424 267.319375,129.296 266.999375,129.12 L266.647375,130.08 C267.127375,130.336 267.623375,130.464 268.151375,130.464 Z" id="accounting&amp;advisory" fill-rule="nonzero"></path>
                <path d="M3.85,105 L3.85,98.225 L12.2,98.225 L12.2,94.725 L3.85,94.725 L3.85,91 L13.325,91 L13.325,87.5 L-2.27373675e-13,87.5 L-2.27373675e-13,105 L3.85,105 Z M21.7270833,105 L21.7270833,87.5 L17.8770833,87.5 L17.8770833,105 L21.7270833,105 Z M34.2291667,105 C39.7291667,105 43.5291667,101.175 43.5291667,96.25 L43.5291667,96.2 C43.5291667,91.275 39.7291667,87.5 34.2291667,87.5 L27.4041667,87.5 L27.4041667,105 L34.2291667,105 Z M34.2291667,101.525 L31.2541667,101.525 L31.2541667,90.975 L34.2291667,90.975 C37.3791667,90.975 39.5041667,93.15 39.5041667,96.25 L39.5041667,96.3 C39.5041667,99.4 37.3791667,101.525 34.2291667,101.525 Z M55.55625,105.275 C60.25625,105.275 63.23125,102.675 63.23125,97.375 L63.23125,87.5 L59.38125,87.5 L59.38125,97.525 C59.38125,100.3 57.95625,101.725 55.60625,101.725 C53.25625,101.725 51.83125,100.25 51.83125,97.4 L51.83125,87.5 L47.98125,87.5 L47.98125,97.5 C47.98125,102.65 50.85625,105.275 55.55625,105.275 Z M76.6583333,105.3 C80.0333333,105.3 82.0333333,104.1 83.8333333,102.175 L81.3833333,99.7 C80.0083333,100.95 78.7833333,101.75 76.7833333,101.75 C73.7833333,101.75 71.7083333,99.25 71.7083333,96.25 L71.7083333,96.2 C71.7083333,93.2 73.8333333,90.75 76.7833333,90.75 C78.5333333,90.75 79.9083333,91.5 81.2583333,92.725 L83.7083333,89.9 C82.0833333,88.3 80.1083333,87.2 76.8083333,87.2 C71.4333333,87.2 67.6833333,91.275 67.6833333,96.25 L67.6833333,96.3 C67.6833333,101.325 71.5083333,105.3 76.6583333,105.3 Z M92.2354167,105 L92.2354167,87.5 L88.3854167,87.5 L88.3854167,105 L92.2354167,105 Z M100.3375,105 L101.9375,101.075 L109.3375,101.075 L110.9375,105 L114.9625,105 L107.4625,87.375 L103.9125,87.375 L96.4125,105 L100.3375,105 Z M107.9625,97.675 L103.3125,97.675 L105.6375,92 L107.9625,97.675 Z M122.989583,105 L122.989583,87.5 L119.139583,87.5 L119.139583,105 L122.989583,105 Z M132.516667,105 L132.516667,99.4 L135.541667,99.4 L139.291667,105 L143.791667,105 L139.516667,98.75 C141.741667,97.925 143.266667,96.15 143.266667,93.325 L143.266667,93.275 C143.266667,91.625 142.741667,90.25 141.766667,89.275 C140.616667,88.125 138.891667,87.5 136.666667,87.5 L128.666667,87.5 L128.666667,105 L132.516667,105 Z M136.416667,96 L132.516667,96 L132.516667,90.975 L136.341667,90.975 C138.216667,90.975 139.366667,91.825 139.366667,93.475 L139.366667,93.525 C139.366667,95 138.291667,96 136.416667,96 Z M161.36875,105 L161.36875,101.575 L151.86875,101.575 L151.86875,97.9 L160.11875,97.9 L160.11875,94.475 L151.86875,94.475 L151.86875,90.925 L161.24375,90.925 L161.24375,87.5 L148.04375,87.5 L148.04375,105 L161.36875,105 Z M178.672917,105 L178.672917,93.65 L183.547917,101.05 L183.647917,101.05 L188.572917,93.575 L188.572917,105 L192.397917,105 L192.397917,87.5 L188.247917,87.5 L183.647917,94.9 L179.047917,87.5 L174.897917,87.5 L174.897917,105 L178.672917,105 Z M206.4,105.3 C211.8,105.3 215.725,101.225 215.725,96.25 L215.725,96.2 C215.725,91.225 211.85,87.2 206.45,87.2 C201.05,87.2 197.125,91.275 197.125,96.25 L197.125,96.3 C197.125,101.275 201,105.3 206.4,105.3 Z M206.45,101.75 C203.35,101.75 201.15,99.25 201.15,96.25 L201.15,96.2 C201.15,93.2 203.3,90.75 206.4,90.75 C209.5,90.75 211.7,93.25 211.7,96.25 L211.7,96.3 C211.7,99.3 209.55,101.75 206.45,101.75 Z M224.252083,105 L224.252083,93.875 L232.727083,105 L236.002083,105 L236.002083,87.5 L232.202083,87.5 L232.202083,98.275 L224.002083,87.5 L220.452083,87.5 L220.452083,105 L224.252083,105 Z M249.429167,105 L249.429167,91.05 L254.754167,91.05 L254.754167,87.5 L240.254167,87.5 L240.254167,91.05 L245.579167,91.05 L245.579167,105 L249.429167,105 Z M266.68125,105.3 C269.88125,105.3 272.35625,104.05 274.15625,102.525 L274.15625,94.925 L266.55625,94.925 L266.55625,98.25 L270.43125,98.25 L270.43125,100.75 C269.45625,101.45 268.20625,101.8 266.80625,101.8 C263.70625,101.8 261.50625,99.45 261.50625,96.25 L261.50625,96.2 C261.50625,93.225 263.73125,90.75 266.53125,90.75 C268.55625,90.75 269.75625,91.4 271.10625,92.525 L273.53125,89.6 C271.70625,88.05 269.80625,87.2 266.65625,87.2 C261.35625,87.2 257.48125,91.275 257.48125,96.25 L257.48125,96.3 C257.48125,101.475 261.23125,105.3 266.68125,105.3 Z M287.658333,105.3 C293.058333,105.3 296.983333,101.225 296.983333,96.25 L296.983333,96.2 C296.983333,91.225 293.108333,87.2 287.708333,87.2 C282.308333,87.2 278.383333,91.275 278.383333,96.25 L278.383333,96.3 C278.383333,101.275 282.258333,105.3 287.658333,105.3 Z M287.708333,101.75 C284.608333,101.75 282.408333,99.25 282.408333,96.25 L282.408333,96.2 C282.408333,93.2 284.558333,90.75 287.658333,90.75 C290.758333,90.75 292.958333,93.25 292.958333,96.25 L292.958333,96.3 C292.958333,99.3 290.808333,101.75 287.708333,101.75 Z M305.485417,105 L305.485417,93.65 L310.360417,101.05 L310.460417,101.05 L315.385417,93.575 L315.385417,105 L319.210417,105 L319.210417,87.5 L315.060417,87.5 L310.460417,94.9 L305.860417,87.5 L301.710417,87.5 L301.710417,105 L305.485417,105 Z M338.0375,105 L338.0375,101.575 L328.5375,101.575 L328.5375,97.9 L336.7875,97.9 L336.7875,94.475 L328.5375,94.475 L328.5375,90.925 L337.9125,90.925 L337.9125,87.5 L324.7125,87.5 L324.7125,105 L338.0375,105 Z M346.614583,105 L346.614583,99.4 L349.639583,99.4 L353.389583,105 L357.889583,105 L353.614583,98.75 C355.839583,97.925 357.364583,96.15 357.364583,93.325 L357.364583,93.275 C357.364583,91.625 356.839583,90.25 355.864583,89.275 C354.714583,88.125 352.989583,87.5 350.764583,87.5 L342.764583,87.5 L342.764583,105 L346.614583,105 Z M350.514583,96 L346.614583,96 L346.614583,90.975 L350.439583,90.975 C352.314583,90.975 353.464583,91.825 353.464583,93.475 L353.464583,93.525 C353.464583,95 352.389583,96 350.514583,96 Z M370.291667,105 L370.291667,98.025 L377.016667,87.5 L372.641667,87.5 L368.391667,94.525 L364.216667,87.5 L359.716667,87.5 L366.441667,98.1 L366.441667,105 L370.291667,105 Z" id="FIDUCIAIREMONTGOMERY" fill-rule="nonzero"></path>
                <path d="M235.789175,65.115 L240.157775,65.115 C240.157775,65.115 232.370975,35.3142 215.125175,31.257 C213.100175,28.4058 211.726775,27.4284 211.726775,27.4284 C207.314975,24.0606 203.578175,24.4602 200.834975,25.83 C200.482175,25.0452 200.113175,24.3198 199.726175,23.67 C199.726175,23.67 193.841975,15.2532 190.542575,34.992 C191.753975,14.0022 189.052175,0 189.052175,0 L188.929775,0 C188.929775,0 186.177575,14.2614 187.473575,35.568 C184.193975,15.0624 178.190975,23.67 178.190975,23.67 C177.809375,24.3126 177.443975,25.0308 177.094775,25.8048 C174.355175,24.4566 170.638175,24.0822 166.253375,27.4284 C166.253375,27.4284 164.887175,28.4022 162.871175,31.239 C145.569575,35.2242 137.759375,65.115 137.759375,65.115 L142.129775,65.115 C147.319175,47.5452 154.205975,40.0464 159.512375,36.8748 C156.589175,42.6204 153.250175,51.5466 150.661775,65.115 L155.842175,65.115 C155.842175,65.115 157.976975,50.6898 165.290375,37.7388 C165.290375,37.7388 169.363775,31.0698 175.130975,31.2732 C171.217775,44.64 170.063975,65.115 170.063975,65.115 L173.212175,65.115 C175.040975,38.8044 179.105375,32.508 179.105375,32.508 C179.297975,32.2506 179.486975,32.0364 179.672375,31.824 C180.206975,31.2462 181.065575,30.483 182.010575,30.258 C185.223575,29.7198 187.068575,36.7776 188.036975,42.651 C188.276375,45.0918 188.571575,47.6028 188.929775,50.1822 L189.052175,50.1822 C189.453575,47.2968 189.773975,44.4942 190.027775,41.7798 C191.044775,36.0306 192.895175,29.5794 196.021775,30.276 C196.131575,30.303 196.239575,30.3354 196.347575,30.3768 C196.415975,30.402 196.484375,30.4308 196.554575,30.465 C196.680575,30.5244 196.806575,30.591 196.925375,30.663 C197.071175,30.753 197.215175,30.8466 197.366375,30.9654 C197.384375,30.9798 197.404175,30.9924 197.420375,31.005 C197.863175,31.3686 198.327575,31.8636 198.811775,32.508 C198.811775,32.508 202.876175,38.8044 204.703175,65.115 L207.853175,65.115 C207.853175,65.115 206.699375,44.6472 202.787975,31.2804 C208.589375,31.0266 212.691575,37.7388 212.691575,37.7388 C220.004975,50.6898 222.137975,65.115 222.137975,65.115 L227.320175,65.115 C224.738975,51.5934 221.416175,42.6798 218.498375,36.9324 C223.793975,40.1364 230.628575,47.6478 235.789175,65.115" id="Fill-53-Copy"></path>
            </g>
        </g>
    </g>
</svg>