<?xml version="1.0" encoding="UTF-8"?>
<svg width="81px" height="51px" viewBox="0 0 81 51" version="1.1" xmlns="http://www.w3.org/2000/svg" xmlns:xlink="http://www.w3.org/1999/xlink">
    <title>Logo-PictoOnly-Orange</title>
    <g id="Version-01---Blue" stroke="none" stroke-width="1" fill="none" fill-rule="evenodd">
        <g id="FMG-News" transform="translate(-56.000000, -88.000000)" fill="#F05E36">
            <g id="Logo-PictoOnly-Orange" transform="translate(39.000000, 67.000000)">
                <path d="M94.2245423,71.8184746 L97.6256,71.8184746 C97.6256,71.8184746 91.5633933,48.5839525 78.1371329,45.4207119 C76.5606228,43.1977424 75.4913987,42.4357017 75.4913987,42.4357017 C72.0567087,39.8099593 69.1475221,40.1215119 67.0118765,41.1894915 C66.7372134,40.5776136 66.4499383,40.0120475 66.1486497,39.5054237 C66.1486497,39.5054237 61.5676617,32.9431729 58.9990013,48.3327458 C59.9421047,31.9678169 57.8386899,21.0508475 57.8386899,21.0508475 L57.7433987,21.0508475 C57.7433987,21.0508475 55.6007463,32.1699051 56.6097128,48.7818305 C54.0564671,32.7944136 49.3829906,39.5054237 49.3829906,39.5054237 C49.085906,40.0064339 48.8014336,40.5663864 48.5295732,41.1698441 C46.3967302,40.1187051 43.5029584,39.8268 40.0892886,42.4357017 C40.0892886,42.4357017 39.0256698,43.1949356 37.4561664,45.406678 C23.9864644,48.5137831 17.9060403,71.8184746 17.9060403,71.8184746 L21.3084993,71.8184746 C25.3485691,58.1199864 30.7101047,52.2734644 34.8412617,49.8006915 C32.5654819,54.2803119 29.9659919,61.239722 27.9508617,71.8184746 L31.9839248,71.8184746 C31.9839248,71.8184746 33.6459168,60.5717085 39.3395705,50.4743186 C39.3395705,50.4743186 42.5108081,45.2747593 47.0007087,45.4333424 C43.9541906,55.8549153 43.0559302,71.8184746 43.0559302,71.8184746 L45.5068779,71.8184746 C46.9306416,51.3051254 50.0948725,46.3960678 50.0948725,46.3960678 C50.2448161,46.1953831 50.391957,46.0283797 50.5362953,45.8627797 C50.952494,45.4122915 51.6209342,44.8172542 52.3566389,44.6418305 C54.8580349,44.2222169 56.2944107,49.7249085 57.0483329,54.3041695 C57.2347114,56.2071661 57.4645315,58.1648949 57.7433987,60.1759525 L57.8386899,60.1759525 C58.1511893,57.9263186 58.4006282,55.7412407 58.5982174,53.6249288 C59.3899758,49.1425017 60.8305557,44.1127525 63.2646872,44.6558644 C63.3501691,44.6769153 63.4342497,44.7021763 63.5183302,44.7344542 C63.5715812,44.7541017 63.6248322,44.7765559 63.6794846,44.8032203 C63.7775785,44.8495322 63.8756725,44.9014576 63.9681611,44.9575932 C64.0816698,45.0277627 64.1937772,45.100739 64.3114899,45.1933627 C64.3255034,45.2045898 64.3409181,45.2144136 64.3535302,45.2242373 C64.6982604,45.507722 65.0598067,45.8936542 65.4367678,46.3960678 C65.4367678,46.3960678 68.6009987,51.3051254 70.0233611,71.8184746 L72.4757101,71.8184746 C72.4757101,71.8184746 71.5774497,55.8605288 68.5323329,45.4389559 C73.0488591,45.241078 76.2425181,50.4743186 76.2425181,50.4743186 C81.9361718,60.5717085 83.5967624,71.8184746 83.5967624,71.8184746 L87.6312268,71.8184746 C85.621702,61.2762102 83.0348242,54.3266237 80.7632483,49.8456 C84.8859973,52.3436339 90.206894,58.1999797 94.2245423,71.8184746" id="Fill-53-Copy"></path>
            </g>
        </g>
    </g>
</svg>