<?xml version="1.0" encoding="utf-8"?>
<!-- Generator: Adobe Illustrator 25.4.1, SVG Export Plug-In . SVG Version: 6.00 Build 0)  -->
<svg version="1.1" id="Calque_1" xmlns="http://www.w3.org/2000/svg" xmlns:xlink="http://www.w3.org/1999/xlink" x="0px" y="0px"
	 width="282px" height="98px" viewBox="0 0 282 98" style="enable-background:new 0 0 282 98;" xml:space="preserve">
<style type="text/css">
	.st0{enable-background:new    ;}
	.st1{fill:#F05E36;}
	.st2{fill:#FFFFFF;}
	.st3{font-family:'Gotham-Bold';}
	.st4{font-size:18.6278px;}
	.st5{fill-rule:evenodd;clip-rule:evenodd;fill:#FFFFFF;}
</style>
<g class="st0">
	<path class="st1" d="M76.6,89.6L76.6,89.6c0-1.3,0.9-2,2.3-2c0.7,0,1.1,0.1,1.6,0.3v-0.4c0-1-0.6-1.5-1.6-1.5
		c-0.6,0-1.2,0.2-1.6,0.4L77,85.6c0.6-0.3,1.2-0.5,2-0.5c0.8,0,1.3,0.2,1.7,0.6c0.4,0.4,0.6,1,0.6,1.7v4h-0.8v-0.9
		c-0.4,0.6-1,1-1.9,1C77.5,91.5,76.6,90.8,76.6,89.6z M80.5,89.3v-0.8c-0.4-0.1-0.9-0.2-1.5-0.2c-1,0-1.5,0.5-1.5,1.3v0
		c0,0.8,0.6,1.3,1.3,1.3C79.7,90.8,80.5,90.2,80.5,89.3z"/>
	<path class="st1" d="M83.4,88.4L83.4,88.4c0-2,1.2-3.3,2.8-3.3c0.9,0,1.5,0.4,2,0.8l-0.5,0.6c-0.4-0.4-0.8-0.7-1.5-0.7
		c-1,0-1.9,1-1.9,2.4v0.1c0,1.5,0.9,2.4,1.9,2.4c0.6,0,1.1-0.3,1.5-0.7l0.5,0.6c-0.5,0.5-1.1,0.9-2,0.9
		C84.5,91.5,83.4,90.3,83.4,88.4z"/>
	<path class="st1" d="M89.6,88.4L89.6,88.4c0-2,1.2-3.3,2.8-3.3c0.9,0,1.5,0.4,2,0.8l-0.5,0.6c-0.4-0.4-0.8-0.7-1.5-0.7
		c-1,0-1.9,1-1.9,2.4v0.1c0,1.5,0.9,2.4,1.9,2.4c0.6,0,1.1-0.3,1.5-0.7l0.5,0.6c-0.5,0.5-1.1,0.9-2,0.9
		C90.8,91.5,89.6,90.3,89.6,88.4z"/>
	<path class="st1" d="M95.9,88.4L95.9,88.4c0-1.9,1.2-3.3,2.8-3.3c1.6,0,2.8,1.4,2.8,3.2v0.1c0,1.8-1.2,3.2-2.8,3.2
		C97.1,91.5,95.9,90.2,95.9,88.4z M100.6,88.3L100.6,88.3c0-1.5-0.8-2.5-1.9-2.5c-1.1,0-1.9,1-1.9,2.4v0.1c0,1.4,0.8,2.4,1.9,2.4
		C99.8,90.8,100.6,89.7,100.6,88.3z"/>
	<path class="st1" d="M103.5,89.3v-4.1h0.9V89c0,1.1,0.5,1.7,1.4,1.7s1.6-0.7,1.6-1.8v-3.8h0.9v6.2h-0.9v-1
		c-0.3,0.6-0.9,1.1-1.8,1.1C104.3,91.5,103.5,90.7,103.5,89.3z"/>
	<path class="st1" d="M110.7,85.2h0.9v1c0.3-0.6,0.9-1.1,1.8-1.1c1.3,0,2,0.9,2,2.3v4.1h-0.9v-3.8c0-1.1-0.5-1.7-1.4-1.7
		s-1.6,0.7-1.6,1.8v3.8h-0.9V85.2z"/>
	<path class="st1" d="M118.1,90v-4h-0.8v-0.8h0.8v-1.8h0.9v1.8h1.6V86H119v3.9c0,0.7,0.4,0.9,0.9,0.9c0.2,0,0.5-0.1,0.7-0.2v0.7
		c-0.3,0.1-0.6,0.2-0.9,0.2C118.8,91.5,118.1,91.1,118.1,90z"/>
	<path class="st1" d="M122.8,82.9h1v1h-1V82.9z M122.8,85.2h0.9v6.2h-0.9V85.2z"/>
	<path class="st1" d="M126.2,85.2h0.9v1c0.3-0.6,0.9-1.1,1.8-1.1c1.3,0,2,0.9,2,2.3v4.1h-0.9v-3.8c0-1.1-0.5-1.7-1.4-1.7
		s-1.6,0.7-1.6,1.8v3.8h-0.9V85.2z"/>
	<path class="st1" d="M133.3,92.6l0.3-0.7c0.6,0.4,1.3,0.6,2,0.6c1.2,0,1.9-0.6,1.9-1.9v-0.9c-0.4,0.7-1.1,1.3-2,1.3
		c-1.3,0-2.4-1-2.4-2.9v0c0-1.9,1.2-2.9,2.5-2.9c1,0,1.6,0.6,2,1.2v-1.1h0.9v5.4c0,0.8-0.2,1.5-0.7,1.9c-0.5,0.5-1.2,0.7-2.1,0.7
		C134.8,93.2,134,93,133.3,92.6z M137.6,88L137.6,88c0-1.4-0.9-2.2-1.9-2.2c-1,0-1.8,0.8-1.8,2.2v0c0,1.3,0.8,2.2,1.8,2.2
		C136.7,90.2,137.6,89.4,137.6,88z"/>
	<path class="st1" d="M149.1,90.3c-0.6,0.8-1.4,1.2-2.4,1.2c-1.4,0-2.4-0.9-2.4-2.3v0c0-1.1,0.7-1.9,1.8-2.5
		c-0.6-0.7-0.8-1.3-0.8-1.9v0c0-1,0.8-1.9,2-1.9c1.1,0,1.8,0.8,1.8,1.8v0c0,1-0.7,1.7-1.8,2.2l1.7,2c0.3-0.5,0.6-1.1,0.8-1.8
		l0.7,0.3c-0.3,0.8-0.6,1.5-1,2.1l1.3,1.5l-0.7,0.5L149.1,90.3z M148.6,89.7l-2-2.4c-1,0.5-1.4,1.2-1.4,1.9v0c0,0.9,0.6,1.5,1.5,1.5
		C147.5,90.8,148.1,90.3,148.6,89.7z M148.3,84.8L148.3,84.8c0-0.6-0.4-1.1-1-1.1c-0.7,0-1.1,0.5-1.1,1.1v0c0,0.5,0.2,0.9,0.8,1.6
		C147.9,86,148.3,85.5,148.3,84.8z"/>
	<path class="st1" d="M156.2,89.6L156.2,89.6c0-1.3,0.9-2,2.3-2c0.7,0,1.1,0.1,1.6,0.3v-0.4c0-1-0.6-1.5-1.6-1.5
		c-0.6,0-1.2,0.2-1.6,0.4l-0.3-0.7c0.6-0.3,1.2-0.5,2-0.5c0.8,0,1.3,0.2,1.7,0.6c0.4,0.4,0.6,1,0.6,1.7v4h-0.8v-0.9
		c-0.4,0.6-1,1-1.9,1C157.1,91.5,156.2,90.8,156.2,89.6z M160.1,89.3v-0.8c-0.4-0.1-0.9-0.2-1.5-0.2c-1,0-1.5,0.5-1.5,1.3v0
		c0,0.8,0.6,1.3,1.3,1.3C159.3,90.8,160.1,90.2,160.1,89.3z"/>
	<path class="st1" d="M163,88.4v-0.1c0-2.1,1.2-3.2,2.5-3.2c1,0,1.6,0.6,2,1.3v-3.6h0.9v8.6h-0.9v-1.2c-0.4,0.7-1,1.3-2,1.3
		C164.2,91.5,163,90.4,163,88.4z M167.6,88.4v-0.1c0-1.5-0.9-2.4-1.9-2.4c-1,0-1.8,0.9-1.8,2.4v0.1c0,1.5,0.8,2.4,1.8,2.4
		C166.7,90.8,167.6,89.8,167.6,88.4z"/>
	<path class="st1" d="M170.4,85.2h0.9l1.7,5.1l1.8-5.1h0.9l-2.3,6.3h-0.8L170.4,85.2z"/>
	<path class="st1" d="M177.7,82.9h1v1h-1V82.9z M177.8,85.2h0.9v6.2h-0.9V85.2z"/>
	<path class="st1" d="M180.6,90.6l0.5-0.6c0.6,0.5,1.2,0.8,1.8,0.8c0.7,0,1.2-0.4,1.2-1v0c0-0.5-0.5-0.8-1.3-1.2
		c-1-0.4-1.8-0.8-1.8-1.8v0c0-1,0.8-1.7,1.9-1.7c0.7,0,1.4,0.3,2,0.7l-0.4,0.7c-0.5-0.3-1-0.6-1.6-0.6c-0.7,0-1.1,0.4-1.1,0.9v0
		c0,0.5,0.5,0.8,1.4,1.1c1,0.5,1.7,0.9,1.7,1.8v0c0,1.1-0.9,1.8-2,1.8C182.1,91.5,181.3,91.2,180.6,90.6z"/>
	<path class="st1" d="M186.7,88.4L186.7,88.4c0-1.9,1.2-3.3,2.8-3.3s2.8,1.4,2.8,3.2v0.1c0,1.8-1.2,3.2-2.8,3.2
		S186.7,90.2,186.7,88.4z M191.4,88.3L191.4,88.3c0-1.5-0.8-2.5-1.9-2.5c-1.1,0-1.9,1-1.9,2.4v0.1c0,1.4,0.8,2.4,1.9,2.4
		C190.6,90.8,191.4,89.7,191.4,88.3z"/>
	<path class="st1" d="M194.4,85.2h0.9v1.4c0.4-0.9,1.1-1.5,2.1-1.5V86h0c-1.2,0-2.1,0.8-2.1,2.4v3h-0.9V85.2z"/>
	<path class="st1" d="M203.3,85.2h0.9l-2.2,6.3c-0.4,1.3-1,1.7-1.8,1.7c-0.4,0-0.8-0.1-1.1-0.3l0.3-0.7c0.2,0.1,0.5,0.2,0.8,0.2
		c0.5,0,0.8-0.3,1.1-1.1l-2.4-6.2h0.9l1.9,5.1L203.3,85.2z"/>
</g>
<text transform="matrix(1 0 0 1 -1.0833 78.6796)" class="st2 st3 st4">FIDUCIAIRE MONTGOMERY</text>
<path id="Fill-53-Copy" class="st5" d="M176.1,49.1h3.2c0,0-5.8-22-18.6-25c-1.5-2.1-2.5-2.8-2.5-2.8c-3.3-2.5-6.1-2.2-8.1-1.2
	c-0.3-0.6-0.5-1.1-0.8-1.6c0,0-4.4-6.2-6.8,8.4c0.9-15.5-1.1-25.9-1.1-25.9h-0.1c0,0-2,10.5-1.1,26.3c-2.4-15.2-6.9-8.8-6.9-8.8
	c-0.3,0.5-0.6,1-0.8,1.6c-2-1-4.8-1.3-8.1,1.2c0,0-1,0.7-2.5,2.8c-12.9,2.9-18.7,25-18.7,25h3.3c3.9-13,9-18.5,12.9-20.9
	c-2.2,4.2-4.7,10.8-6.6,20.9h3.9c0,0,1.6-10.7,7-20.2c0,0,3-4.9,7.3-4.8c-2.9,9.9-3.8,25-3.8,25h2.3c1.4-19.4,4.4-24.1,4.4-24.1
	c0.1-0.2,0.3-0.3,0.4-0.5c0.4-0.4,1-1,1.7-1.2c2.4-0.4,3.8,4.8,4.5,9.2c0.2,1.8,0.4,3.7,0.7,5.6h0.1c0.3-2.1,0.5-4.2,0.7-6.2
	c0.8-4.2,2.1-9,4.5-8.5c0.1,0,0.2,0,0.2,0.1c0.1,0,0.1,0,0.2,0.1c0.1,0,0.2,0.1,0.3,0.1c0.1,0.1,0.2,0.1,0.3,0.2c0,0,0,0,0,0
	c0.3,0.3,0.7,0.6,1,1.1c0,0,3,4.7,4.4,24.1h2.3c0,0-0.9-15.1-3.8-25c4.3-0.2,7.4,4.8,7.4,4.8c5.4,9.6,7,20.2,7,20.2h3.9
	c-1.9-10-4.4-16.6-6.6-20.8C167.2,30.6,172.3,36.2,176.1,49.1"/>
</svg>
