<?xml version="1.0" encoding="UTF-8"?>
<svg width="285px" height="98px" viewBox="0 0 285 98" version="1.1" xmlns="http://www.w3.org/2000/svg" xmlns:xlink="http://www.w3.org/1999/xlink">
    <title>Logo</title>
    <g id="Version-01---Blue" stroke="none" stroke-width="1" fill="none" fill-rule="evenodd">
        <g id="FMG-Introduction" transform="translate(-114.000000, -180.000000)" fill="#FFFFFF">
            <g id="/-HERO" transform="translate(0.000000, -145.000000)">
                <g id="Logo" transform="translate(24.000000, 305.000000)">
                    <text id="accounting-&amp;-advisor" font-family="GothamNarrow-Book, Gotham Narrow" font-size="12.0803024" font-style="condensed" font-weight="normal" letter-spacing="0.755018901">
                        <tspan x="166.712112" y="116.278245">accounting &amp; advisory</tspan>
                    </text>
                    <text id="FIDUCIAIRE-MONTGOMER" font-family="Gotham-Bold, Gotham" font-size="18.8754725" font-weight="bold" letter-spacing="0.983097558">
                        <tspan x="88.5198061" y="98.7834232">FIDUCIAIRE MONTGOMERY</tspan>
                    </text>
                    <path d="M268.142442,68.9728079 L271.441903,68.9728079 C271.441903,68.9728079 265.560787,46.6589084 252.535596,43.6210049 C251.00618,41.4861163 249.968895,40.75427 249.968895,40.75427 C246.636806,38.2325675 243.814523,38.5317754 241.742674,39.5574384 C241.476215,38.9698049 241.197522,38.4266483 240.905233,37.9400985 C240.905233,37.9400985 236.461088,31.637864 233.969159,46.4176552 C234.88409,30.7011547 232.843509,20.2167488 232.843509,20.2167488 L232.751064,20.2167488 C232.751064,20.2167488 230.672417,30.8952355 231.651243,46.8489458 C229.174268,31.494999 224.640398,37.9400985 224.640398,37.9400985 C224.352188,38.4212571 224.076213,38.9590227 223.812474,39.5385695 C221.743343,38.5290798 218.936014,38.2487409 215.624318,40.75427 C215.624318,40.75427 214.592471,41.4834207 213.069852,43.6075271 C200.002517,46.5915192 194.103728,68.9728079 194.103728,68.9728079 L197.404548,68.9728079 C201.323933,55.8170956 206.525309,50.2022305 210.53306,47.8274365 C208.325262,52.1295606 205.803424,58.8132177 203.84849,68.9728079 L207.761077,68.9728079 C207.761077,68.9728079 209.373422,58.1716729 214.896995,48.4743724 C214.896995,48.4743724 217.973501,43.4808355 222.32928,43.633135 C219.373767,53.6417734 218.50234,68.9728079 218.50234,68.9728079 L220.880073,68.9728079 C222.261306,49.2722601 225.331015,44.5577143 225.331015,44.5577143 C225.476479,44.3649813 225.619225,44.2045951 225.759251,44.0455567 C226.163017,43.6129182 226.81149,43.0414581 227.525218,42.8729852 C229.951892,42.469998 231.34536,47.7546562 232.076761,52.1524729 C232.257572,53.980067 232.480527,55.8602246 232.751064,57.791598 L232.843509,57.791598 C233.146673,55.6311015 233.388661,53.532603 233.580347,51.5001458 C234.348454,47.1953261 235.746001,42.3648709 238.10742,42.8864631 C238.190349,42.9066798 238.271918,42.9309399 238.353487,42.9619389 C238.405147,42.9808079 238.456807,43.0023724 238.509827,43.0279803 C238.604991,43.0724571 238.700154,43.1223251 238.78988,43.1762365 C238.899998,43.2436256 239.008757,43.3137103 239.122953,43.402664 C239.136548,43.4134463 239.151502,43.4228808 239.163737,43.4323153 C239.49817,43.7045675 239.848916,44.0752079 240.214617,44.5577143 C240.214617,44.5577143 243.284325,49.2722601 244.664199,68.9728079 L247.043291,68.9728079 C247.043291,68.9728079 246.171864,53.6471645 243.217711,43.6385261 C247.599319,43.4484887 250.697577,48.4743724 250.697577,48.4743724 C256.22115,58.1716729 257.832135,68.9728079 257.832135,68.9728079 L261.746082,68.9728079 C259.796586,58.8482601 257.286983,52.1740374 255.083264,47.8705655 C259.082858,50.2696197 264.244809,55.8939192 268.142442,68.9728079" id="Fill-53-Copy"></path>
                </g>
            </g>
        </g>
    </g>
</svg>