<?xml version="1.0" encoding="UTF-8"?>
<svg width="29px" height="29px" viewBox="0 0 29 29" version="1.1" xmlns="http://www.w3.org/2000/svg" xmlns:xlink="http://www.w3.org/1999/xlink">
    <title>icons/icon-linkedin</title>
    <g id="Symbols" stroke="none" stroke-width="1" fill="none" fill-rule="evenodd">
        <g id="Templates/Footer" transform="translate(-894.000000, -319.000000)">
            <g id="icons/icon-linkedin" transform="translate(894.000000, 319.000000)">
                <rect id="Rectangle" fill="#f05e36" x="0" y="0" width="29" height="29"></rect>
                <polygon id="Combined-Shape" fill="#FFFFFF" points="10.420672 11.2300339 7.07895968 11.2300339 7.07895968 21.2704922 10.420672 21.2704922"></polygon>
                <path d="M10.6407656,8.12411511 C10.6190765,7.13965454 9.915084,6.38983051 8.77190527,6.38983051 C7.62872654,6.38983051 6.88135593,7.13965454 6.88135593,8.12411511 C6.88135593,9.0881841 7.6066371,9.85959923 8.72852721,9.85959923 L8.74988256,9.85959923 C9.915084,9.85959923 10.6407656,9.0881841 10.6407656,8.12411511 Z" id="Combined-Shape" fill="#FFFFFF"></path>
                <path d="M22.4721649,15.5136003 C22.4721649,12.4296058 20.8235984,10.9942645 18.6245977,10.9942645 C16.8503683,10.9942645 16.0560159,11.9687958 15.6124919,12.6524472 L15.6124919,11.2303005 L12.2703792,11.2303005 C12.3144246,12.1724452 12.2703792,21.2707588 12.2703792,21.2707588 L15.6124919,21.2707588 L15.6124919,15.6633385 C15.6124919,15.3632623 15.6341809,15.0639191 15.7225387,14.8490744 C15.9640544,14.2495884 16.5139547,13.628911 17.4371733,13.628911 C18.6468873,13.628911 19.1304526,14.5495979 19.1304526,15.8988414 L19.1304526,21.2704922 L22.4720314,21.2704922 L22.4721649,15.5136003 Z" id="Combined-Shape" fill="#FFFFFF"></path>
            </g>
        </g>
    </g>
</svg>