<?xml version="1.0" encoding="UTF-8"?>
<svg width="282px" height="98px" viewBox="0 0 282 98" version="1.1" xmlns="http://www.w3.org/2000/svg" xmlns:xlink="http://www.w3.org/1999/xlink">
    <title>Logo</title>
    <g id="Symbols" stroke="none" stroke-width="1" fill="none" fill-rule="evenodd">
        <g id="Templates/Footer" transform="translate(-579.000000, -77.000000)">
            <g id="Logo" transform="translate(491.000000, 58.000000)">
                <path d="M264.114551,68.0652709 L267.36445,68.0652709 C267.36445,68.0652709 261.571676,46.0449754 248.742143,43.0470443 C247.2357,40.9402463 246.213998,40.2180296 246.213998,40.2180296 C242.931962,37.7295074 240.152073,38.0247783 238.111346,39.0369458 C237.84889,38.4570443 237.574383,37.9210345 237.286485,37.4408867 C237.286485,37.4408867 232.909098,31.2215764 230.454601,45.8068966 C231.355788,30.2971921 229.345859,19.9507389 229.345859,19.9507389 L229.254803,19.9507389 C229.254803,19.9507389 227.207381,30.4887192 228.171504,46.2325123 C225.731736,31.0805911 221.265971,37.4408867 221.265971,37.4408867 C220.982091,37.9157143 220.710262,38.4464039 220.450484,39.0183251 C218.412435,38.0221182 215.647276,37.745468 212.385326,40.2180296 C212.385326,40.2180296 211.368979,40.9375862 209.869232,43.0337438 C196.998188,45.9784729 191.188006,68.0652709 191.188006,68.0652709 L194.439244,68.0652709 C198.299754,55.0826601 203.422997,49.5416749 207.370546,47.1981281 C205.195913,51.4436453 202.711957,58.0393596 200.786388,68.0652709 L204.640203,68.0652709 C204.640203,68.0652709 206.228328,57.4062562 211.668929,47.8365517 C211.668929,47.8365517 214.699221,42.9087192 218.98957,43.0590148 C216.078453,52.9359606 215.220116,68.0652709 215.220116,68.0652709 L217.562132,68.0652709 C218.922617,48.6239409 221.946214,43.9714286 221.946214,43.9714286 C222.089493,43.7812315 222.230095,43.6229557 222.368018,43.4660099 C222.765719,43.039064 223.40445,42.4751232 224.107457,42.308867 C226.497679,41.9111823 227.870215,47.1263054 228.590629,51.4662562 C228.768724,53.269803 228.98833,55.1252217 229.254803,57.0311823 L229.345859,57.0311823 C229.64447,54.8991133 229.882822,52.8282266 230.07163,50.8225123 C230.828199,46.574335 232.204752,41.8074384 234.5307,42.3221675 C234.612382,42.3421182 234.692726,42.3660591 234.773069,42.3966502 C234.823954,42.4152709 234.874838,42.4365517 234.927061,42.4618227 C235.020795,42.5057143 235.11453,42.5549261 235.202908,42.6081281 C235.311371,42.6746305 235.418496,42.7437931 235.530977,42.8315764 C235.544368,42.8422167 235.559098,42.8515271 235.571149,42.8608374 C235.900558,43.1295074 236.246035,43.4952709 236.606242,43.9714286 C236.606242,43.9714286 239.62984,48.6239409 240.988986,68.0652709 L243.332341,68.0652709 C243.332341,68.0652709 242.474003,52.9412808 239.564226,43.064335 C243.880016,42.876798 246.931734,47.8365517 246.931734,47.8365517 C252.372335,57.4062562 253.959121,68.0652709 253.959121,68.0652709 L257.814274,68.0652709 C255.894062,58.0739409 253.422158,51.4875369 251.251541,47.2406897 C255.191056,49.6081773 260.275466,55.1584729 264.114551,68.0652709" id="Fill-53-Copy" fill="#f66e49"></path>
            </g>
        </g>
    </g>
</svg>